<svg xmlns="http://www.w3.org/2000/svg" width="275.351" height="280.277" viewBox="0 0 275.351 280.277">
  <g id="award" transform="translate(4737.347 2790.446)">
    <g id="Group_41" data-name="Group 41">
      <g id="Group_18" data-name="Group 18">
        <path id="Path_2" data-name="Path 2" d="M-4596.341-2564.036l35.171,14.125,43.537-108.406-29.729-11.94a5.864,5.864,0,0,0-7.627,3.256Z" fill="#f4a640"/>
        <g id="Group_16" data-name="Group 16">
          <rect id="Rectangle_19" data-name="Rectangle 19" width="68.393" height="96.16" transform="translate(-4533.136 -2556.131) rotate(-169.947)" fill="#adcfd8"/>
          <rect id="Rectangle_20" data-name="Rectangle 20" width="30.542" height="0.686" transform="translate(-4536.731 -2644.039) rotate(-169.947)" fill="#55769f"/>
          <rect id="Rectangle_21" data-name="Rectangle 21" width="43.373" height="0.686" transform="translate(-4530.11 -2644.631) rotate(-169.947)" fill="#55769f"/>
          <rect id="Rectangle_22" data-name="Rectangle 22" width="52.622" height="0.686" transform="translate(-4527.117 -2635.023) rotate(-169.947)" fill="#55769f"/>
          <rect id="Rectangle_23" data-name="Rectangle 23" width="52.622" height="0.686" transform="translate(-4527.693 -2631.776) rotate(-169.947)" fill="#55769f"/>
          <rect id="Rectangle_24" data-name="Rectangle 24" width="52.622" height="0.686" transform="translate(-4528.844 -2625.281) rotate(-169.947)" fill="#55769f"/>
          <rect id="Rectangle_25" data-name="Rectangle 25" width="52.622" height="0.686" transform="translate(-4529.419 -2622.034) rotate(-169.947)" fill="#55769f"/>
          <rect id="Rectangle_26" data-name="Rectangle 26" width="52.622" height="0.686" transform="translate(-4529.995 -2618.787) rotate(-169.947)" fill="#55769f"/>
          <rect id="Rectangle_27" data-name="Rectangle 27" width="52.622" height="0.686" transform="translate(-4532.527 -2604.505) rotate(-169.947)" fill="#55769f"/>
          <rect id="Rectangle_28" data-name="Rectangle 28" width="52.622" height="0.686" transform="matrix(-0.985, -0.175, 0.175, -0.985, -4533.124, -2601.138)" fill="#55769f"/>
          <rect id="Rectangle_29" data-name="Rectangle 29" width="52.622" height="0.686" transform="translate(-4533.721 -2597.771) rotate(-169.947)" fill="#55769f"/>
          <rect id="Rectangle_30" data-name="Rectangle 30" width="52.622" height="0.686" transform="translate(-4534.318 -2594.403) rotate(-169.947)" fill="#55769f"/>
          <rect id="Rectangle_31" data-name="Rectangle 31" width="52.622" height="0.686" transform="translate(-4534.915 -2591.036) rotate(-169.947)" fill="#55769f"/>
          <rect id="Rectangle_32" data-name="Rectangle 32" width="52.622" height="0.686" transform="translate(-4535.511 -2587.669) rotate(-169.947)" fill="#55769f"/>
          <rect id="Rectangle_33" data-name="Rectangle 33" width="52.622" height="0.686" transform="translate(-4536.108 -2584.302) rotate(-169.947)" fill="#55769f"/>
        </g>
        <g id="Group_17" data-name="Group 17">
          <rect id="Rectangle_34" data-name="Rectangle 34" width="68.393" height="96.16" transform="matrix(-0.967, -0.255, 0.255, -0.967, -4532.321, -2554.718)" fill="#daeef7"/>
          <rect id="Rectangle_35" data-name="Rectangle 35" width="30.542" height="0.686" transform="matrix(-0.967, -0.255, 0.255, -0.967, -4528.713, -2642.625)" fill="#55769f"/>
          <rect id="Rectangle_36" data-name="Rectangle 36" width="43.374" height="0.686" transform="translate(-4522.066 -2642.674) rotate(-165.256)" fill="#55769f"/>
          <rect id="Rectangle_37" data-name="Rectangle 37" width="52.622" height="0.686" transform="matrix(-0.967, -0.255, 0.255, -0.967, -4519.869, -2632.853)" fill="#55769f"/>
          <rect id="Rectangle_38" data-name="Rectangle 38" width="52.622" height="0.686" transform="translate(-4520.708 -2629.664) rotate(-165.256)" fill="#55769f"/>
          <rect id="Rectangle_39" data-name="Rectangle 39" width="52.622" height="0.686" transform="translate(-4522.387 -2623.285) rotate(-165.256)" fill="#55769f"/>
          <rect id="Rectangle_40" data-name="Rectangle 40" width="52.622" height="0.686" transform="translate(-4523.227 -2620.096) rotate(-165.256)" fill="#55769f"/>
          <rect id="Rectangle_41" data-name="Rectangle 41" width="52.622" height="0.686" transform="translate(-4524.066 -2616.907) rotate(-165.256)" fill="#55769f"/>
          <rect id="Rectangle_42" data-name="Rectangle 42" width="52.622" height="0.686" transform="translate(-4527.757 -2602.879) rotate(-165.256)" fill="#55769f"/>
          <rect id="Rectangle_43" data-name="Rectangle 43" width="52.622" height="0.686" transform="matrix(-0.967, -0.255, 0.255, -0.967, -4528.627, -2599.572)" fill="#55769f"/>
          <rect id="Rectangle_44" data-name="Rectangle 44" width="52.622" height="0.686" transform="matrix(-0.967, -0.255, 0.255, -0.967, -4529.498, -2596.265)" fill="#55769f"/>
          <rect id="Rectangle_45" data-name="Rectangle 45" width="52.622" height="0.686" transform="translate(-4530.369 -2592.958) rotate(-165.256)" fill="#55769f"/>
          <rect id="Rectangle_46" data-name="Rectangle 46" width="52.622" height="0.686" transform="translate(-4531.239 -2589.651) rotate(-165.256)" fill="#55769f"/>
          <rect id="Rectangle_47" data-name="Rectangle 47" width="52.622" height="0.686" transform="matrix(-0.967, -0.255, 0.255, -0.967, -4532.109, -2586.344)" fill="#55769f"/>
          <rect id="Rectangle_48" data-name="Rectangle 48" width="52.622" height="0.686" transform="matrix(-0.967, -0.255, 0.255, -0.967, -4532.979, -2583.037)" fill="#55769f"/>
        </g>
        <path id="Path_3" data-name="Path 3" d="M-4583-2558.676l70.807,28.437,41.3-102.832-59.5-36.7a6.335,6.335,0,0,0-9.2,3.031Z" fill="#feb546"/>
      </g>
      <g id="Group_19" data-name="Group 19">
        <path id="Path_4" data-name="Path 4" d="M-4497.773-2569.468l12.829-3.758c2.258-9.336,3.615-17.288,3.615-17.288-15.479.625-27.392,5.362-36.555,12.1l-1.9,15.248-4.093-10.223c-21.631,20.629-24.162,52.474-24.162,52.474s43.538-17.035,51.837-24.055c3.2-2.71,6.15-10.117,8.56-18.19C-4491.968-2565.5-4497.773-2569.468-4497.773-2569.468Z" fill="#ff5b7e"/>
        <path id="Path_5" data-name="Path 5" d="M-4481.329-2590.514s-50.952,39.967-66.705,69.595c0,0,43.538-17.035,51.837-24.055,3.2-2.71,6.15-10.117,8.56-18.19-4.331-2.332-10.136-6.3-10.136-6.3l12.829-3.758C-4482.686-2582.562-4481.329-2590.514-4481.329-2590.514Z" fill="#e03268"/>
        <path id="Path_6" data-name="Path 6" d="M-4472.581-2551.287a61.28,61.28,0,0,0-25.4-1.929c-1.464,3.365-3.3,7.353-3.3,7.353l-2.054-6.387c-29.4,6.616-48.147,32.651-48.147,32.651,19.718,6,34.865,5,46.359.844.077-2.452.14-6.1.14-6.1l3.5,4.628a52.578,52.578,0,0,0,13.591-8.859c-1.837-2.394-3.837-5.158-3.837-5.158l7.231,1.844A56.893,56.893,0,0,0-4472.581-2551.287Z" fill="#ff5b7e"/>
        <path id="Path_7" data-name="Path 7" d="M-4505.123-2518.755c.077-2.452.14-6.1.14-6.1l3.5,4.628a52.578,52.578,0,0,0,13.591-8.859c-1.837-2.394-3.837-5.158-3.837-5.158l7.231,1.844a56.893,56.893,0,0,0,11.92-18.89c-34.9,5.34-78.9,31.688-78.9,31.688C-4531.764-2513.6-4516.617-2514.595-4505.123-2518.755Z" fill="#e03268"/>
      </g>
      <g id="Group_20" data-name="Group 20">
        <path id="Path_8" data-name="Path 8" d="M-4695.03-2629.275h-4.842a5.073,5.073,0,0,1,2.862-.865h121.3c6.346,0,11.491,4.56,11.491,10.186v6.47c0,5.626-5.145,10.186-11.491,10.186l-119.946-.036Z" fill="#e03268"/>
        <path id="Path_9" data-name="Path 9" d="M-4574.392-2613.484v-6.47c0-5.626-5.145-10.186-11.491-10.186h2.6c6.347,0,11.492,4.56,11.492,10.186v6.47c0,5.626-5.145,10.186-11.492,10.186h-2.57C-4579.519-2603.315-4574.392-2607.869-4574.392-2613.484Z" fill="#feb546"/>
        <path id="Path_10" data-name="Path 10" d="M-4602.8-2613.484v-6.47c0-5.626-5.145-10.186-11.492-10.186h2.6c6.347,0,11.492,4.56,11.492,10.186v6.47c0,5.626-5.145,10.186-11.492,10.186h-2.57C-4607.928-2603.315-4602.8-2607.869-4602.8-2613.484Z" fill="#feb546"/>
        <path id="Path_11" data-name="Path 11" d="M-4626.164-2630.116c6.069,0,10.989,4.361,10.989,9.741v7.312c0,5.38-4.92,9.741-10.989,9.741h-75.513v-1.635h.311l19.2-1.612,3.88-13.493s-7.489-7.457-7.977-7.649-15.1-.776-15.1-.776l-.311,0v-1.626Z" fill="#ff5b7e"/>
        <path id="Path_12" data-name="Path 12" d="M-4696.78-2616.767c0-7.889-4.6-11.714-4.6-11.714h73.669c5.574,0,10.093,4.006,10.093,8.948v5.628c0,4.942-4.519,8.948-10.093,8.948h-73.669S-4696.78-2606.834-4696.78-2616.767Z" fill="#daeef7"/>
        <path id="Path_13" data-name="Path 13" d="M-4617.617-2619.533v5.628a8.007,8.007,0,0,1-.294,2.146c-2.485-5.389-7.246-10.579-16.311-12.248-21.165-3.9-67.157-4.474-67.157-4.474h73.669C-4622.136-2628.481-4617.617-2624.475-4617.617-2619.533Z" fill="#daeef7" style="mix-blend-mode: multiply;isolation: isolate"/>
      </g>
      <g id="Group_21" data-name="Group 21">
        <path id="Path_14" data-name="Path 14" d="M-4693.032-2575.622h-5.481a5.355,5.355,0,0,1,3.239-1.084h137.29a12.88,12.88,0,0,1,13.006,12.75v8.1a12.879,12.879,0,0,1-13.006,12.75l-135.755-.045Z" fill="#07085b"/>
        <path id="Path_15" data-name="Path 15" d="M-4615.089-2576.676a12.317,12.317,0,0,1,12.437,12.193v9.153a12.317,12.317,0,0,1-12.437,12.193h-85.468v-2.047h.354l21.727-2.017,4.392-16.89s-8.476-9.333-9.029-9.574-17.09-.971-17.09-.971l-.354,0v-2.036Z" fill="#55769f"/>
        <path id="Path_16" data-name="Path 16" d="M-4695.013-2559.967c0-9.874-5.206-14.662-5.206-14.662h83.379a11.314,11.314,0,0,1,11.424,11.2v7.045a11.314,11.314,0,0,1-11.424,11.2h-83.379S-4695.013-2547.533-4695.013-2559.967Z" fill="#daeef7"/>
        <path id="Path_17" data-name="Path 17" d="M-4605.416-2563.429v7.045a11.032,11.032,0,0,1-.333,2.686c-2.812-6.745-8.2-13.242-18.461-15.331-23.955-4.877-76.009-5.6-76.009-5.6h83.379A11.314,11.314,0,0,1-4605.416-2563.429Z" fill="#daeef7" style="mix-blend-mode: multiply;isolation: isolate"/>
      </g>
      <g id="Group_22" data-name="Group 22">
        <path id="Path_18" data-name="Path 18" d="M-4540.453-2602.506h5.483a6.318,6.318,0,0,0-3.24-.86h-137.344c-7.186,0-13.011,4.529-13.011,10.117v6.426c0,5.588,5.825,10.117,13.011,10.117l135.808-.036Z" fill="#02ccc0"/>
        <path id="Path_19" data-name="Path 19" d="M-4618.426-2603.342c-6.872,0-12.443,4.331-12.443,9.675v7.262c0,5.343,5.571,9.675,12.443,9.675h85.5v-1.624h-.353l-21.736-1.6-4.394-13.4s8.48-7.405,9.033-7.6,17.1-.771,17.1-.771l.353,0v-1.615Z" fill="#06bfad"/>
        <path id="Path_20" data-name="Path 20" d="M-4538.471-2590.084a14.767,14.767,0,0,1,5.207-11.634h-83.411c-6.312,0-11.429,3.979-11.429,8.887v5.59c0,4.908,5.117,8.887,11.429,8.887h83.411S-4538.471-2580.218-4538.471-2590.084Z" fill="#daeef7"/>
        <path id="Path_21" data-name="Path 21" d="M-4628.1-2592.831v5.59a7.049,7.049,0,0,0,.333,2.131c2.814-5.352,8.205-10.507,18.469-12.165,23.964-3.869,76.038-4.443,76.038-4.443h-83.411C-4622.987-2601.718-4628.1-2597.739-4628.1-2592.831Z" fill="#daeef7" style="mix-blend-mode: multiply;isolation: isolate"/>
        <path id="Path_22" data-name="Path 22" d="M-4663.4-2586.823v-6.426c0-5.588,5.826-10.117,13.011-10.117h-13.042c-7.186,0-13.011,4.529-13.011,10.117v6.426c0,5.588,5.825,10.117,13.011,10.117l12.87,0C-4657.672-2576.781-4663.4-2581.281-4663.4-2586.823Z" fill="#55769f" opacity="0.5"/>
      </g>
      <path id="Path_23" data-name="Path 23" d="M-4531.406-2542.077h6.873a8.666,8.666,0,0,0-4.061-.961h-172.185c-9.009,0-16.312,5.061-16.312,11.3v7.18c0,6.243,7.3,11.3,16.312,11.3l170.259-.04Z" fill="#feb546"/>
      <path id="Path_24" data-name="Path 24" d="M-4629.159-2543.012c-8.615,0-15.6,4.84-15.6,10.81v8.115c0,5.97,6.984,10.809,15.6,10.809h107.189v-1.815h-.443l-27.249-1.788-5.508-14.974s10.63-8.274,11.324-8.487,21.433-.861,21.433-.861l.443,0v-1.8Z" fill="#f4a640"/>
      <path id="Path_25" data-name="Path 25" d="M-4528.922-2528.2a16.037,16.037,0,0,1,6.529-13h-104.571c-7.913,0-14.328,4.446-14.328,9.929v6.246c0,5.484,6.415,9.929,14.328,9.929h104.571S-4528.922-2517.174-4528.922-2528.2Z" fill="#daeef7"/>
      <path id="Path_26" data-name="Path 26" d="M-4641.292-2531.268v6.246a7.1,7.1,0,0,0,.418,2.382c3.527-5.98,10.287-11.74,23.154-13.592,30.043-4.324,95.327-4.965,95.327-4.965h-104.571C-4634.877-2541.2-4641.292-2536.751-4641.292-2531.268Z" fill="#daeef7" style="mix-blend-mode: multiply;isolation: isolate"/>
      <rect id="Rectangle_49" data-name="Rectangle 49" width="252.381" height="3.287" rx="1.643" transform="translate(-4484.967 -2510.17) rotate(-180)" fill="#c4dfe8"/>
      <path id="Path_27" data-name="Path 27" d="M-4483.436-2621.718l-48.208-27.573-6.516,12.906,49.327,26.1Z" fill="#f4a640"/>
      <path id="Path_28" data-name="Path 28" d="M-4470.89-2612.081s.57,5.624,5.008,6.013c-4.438.389-5.008,6.013-5.008,6.013s-.571-5.624-5.009-6.013C-4471.461-2606.457-4470.89-2612.081-4470.89-2612.081Z" fill="#ff5b7e"/>
      <path id="Path_29" data-name="Path 29" d="M-4484.806-2752.036s.507,4.994,4.447,5.339c-3.94.346-4.447,5.34-4.447,5.34s-.507-4.994-4.447-5.34C-4485.313-2747.042-4484.806-2752.036-4484.806-2752.036Z" fill="#feb546"/>
      <path id="Path_30" data-name="Path 30" d="M-4719.382-2589.937s.341,3.36,2.993,3.593c-2.652.233-2.993,3.593-2.993,3.593s-.34-3.36-2.992-3.593C-4719.722-2586.577-4719.382-2589.937-4719.382-2589.937Z" fill="#feb546"/>
      <path id="Path_31" data-name="Path 31" d="M-4502.515-2684.4s.34,3.354,2.986,3.586c-2.646.232-2.986,3.585-2.986,3.585s-.34-3.353-2.986-3.585C-4502.855-2681.041-4502.515-2684.4-4502.515-2684.4Z" fill="#ff5b7e"/>
      <path id="Path_32" data-name="Path 32" d="M-4548.584-2772.414s.34,3.354,2.987,3.586c-2.647.232-2.987,3.585-2.987,3.585s-.34-3.353-2.986-3.585C-4548.924-2769.06-4548.584-2772.414-4548.584-2772.414Z" fill="#ff5b7e"/>
      <path id="Path_33" data-name="Path 33" d="M-4687.3-2729.728s.445,4.388,3.908,4.692c-3.463.3-3.908,4.691-3.908,4.691s-.445-4.388-3.907-4.691C-4687.748-2725.34-4687.3-2729.728-4687.3-2729.728Z" fill="#ff5b7e"/>
      <path id="Path_34" data-name="Path 34" d="M-4717.091-2653.717s.652,6.429,5.726,6.874c-5.074.445-5.726,6.874-5.726,6.874s-.652-6.429-5.725-6.874C-4717.743-2647.288-4717.091-2653.717-4717.091-2653.717Z" fill="#ff5b7e"/>
      <path id="Path_35" data-name="Path 35" d="M-4561.956-2712.129s.507,4.994,4.448,5.34c-3.941.346-4.448,5.34-4.448,5.34s-.506-4.994-4.447-5.34C-4562.462-2707.135-4561.956-2712.129-4561.956-2712.129Z" fill="#ff5b7e"/>
      <path id="Path_36" data-name="Path 36" d="M-4466.443-2658.217s.506,4.994,4.447,5.339c-3.941.346-4.447,5.34-4.447,5.34s-.506-4.994-4.447-5.34C-4466.949-2653.223-4466.443-2658.217-4466.443-2658.217Z" fill="#02ccc0"/>
      <path id="Path_37" data-name="Path 37" d="M-4676.447-2672.751s.578,5.7,5.074,6.091c-4.5.4-5.074,6.092-5.074,6.092s-.577-5.7-5.074-6.092C-4677.024-2667.053-4676.447-2672.751-4676.447-2672.751Z" fill="#02ccc0"/>
      <path id="Path_38" data-name="Path 38" d="M-4652.817-2782.107s.4,4.533,3.474,4.847c-3.078.313-3.474,4.846-3.474,4.846s-.4-4.533-3.475-4.846C-4653.213-2777.574-4652.817-2782.107-4652.817-2782.107Z" fill="#feb546"/>
      <g id="Group_37" data-name="Group 37">
        <g id="Group_36" data-name="Group 36">
          <path id="Path_39" data-name="Path 39" d="M-4604.117-2691.131l7.778.624-2.51,6.292-3.926-.315-1.635,5.245c-.4-.182-.692-.32-.751-.359a48.129,48.129,0,0,1-.934-5.14Z" fill="#daeef7" style="mix-blend-mode: multiply;isolation: isolate"/>
          <path id="Path_40" data-name="Path 40" d="M-4599.678-2633.269v2.743a.41.41,0,0,0,.409.41h6.4a.465.465,0,0,0,.249-.857l-3.592-2.3A3.4,3.4,0,0,1-4599.678-2633.269Z" fill="#e03268"/>
          <path id="Path_41" data-name="Path 41" d="M-4612.245-2749.5a.126.126,0,0,1-.17-.143,14.281,14.281,0,0,0,.465-3.245c-.219-.1-.709,2.032-.931,2.058s.307-2.043.055-2.113-.672,1.833-.788,1.84.091-1.858-.033-1.988-.587,1.835-.726,1.884-.269-1.413-.4-1.417-.211-.026-.86,3.35a4.684,4.684,0,0,1-.257,1.528l.487.994,1.511.05s3.281-2.969,3.254-3.149S-4610.805-2750.059-4612.245-2749.5Z" fill="#ffc0bb"/>
          <path id="Path_42" data-name="Path 42" d="M-4596.7-2748.747a.127.127,0,0,0,.217-.049,14.222,14.222,0,0,1,1.065-3.1c.241.01-.295,2.132-.109,2.256s.658-1.958.913-1.906-.236,1.937-.136,2,.765-1.7.935-1.755-.314,1.9-.213,2.008.884-1.135,1-1.08.2.072-.762,3.373a4.679,4.679,0,0,0-.467,1.477l-.887.663-1.367-.644s-1.567-4.138-1.461-4.286S-4597.725-2749.906-4596.7-2748.747Z" fill="#ffc0bb"/>
          <path id="Path_43" data-name="Path 43" d="M-4608.7-2721.711l.024,5.772-5.607-.864.936-6.491Z" fill="#ffc0bb"/>
          <path id="Path_44" data-name="Path 44" d="M-4613.781-2720.3l.431-2.988,4.653,2.13,0,1.139A8.463,8.463,0,0,1-4613.781-2720.3Z" fill="#fc8d84" opacity="0.6"/>
          <path id="Path_45" data-name="Path 45" d="M-4618.834-2633.573v3.007a.451.451,0,0,1-.45.45h-7.042a.51.51,0,0,1-.273-.94l3.95-2.517A3.745,3.745,0,0,0-4618.834-2633.573Z" fill="#e03268"/>
          <g id="Group_25" data-name="Group 25">
            <g id="Group_24" data-name="Group 24">
              <g id="Group_23" data-name="Group 23">
                <path id="Path_46" data-name="Path 46" d="M-4625.265-2684.669c.014-.643-1.66,1.253-1.629.74.657-10.679,21.523-1.725,21.523-1.725l5.093,3.737,5.75,49.494s-3.121.9-5.175.164l-12.733-42.412-1.566-.6A88.545,88.545,0,0,1-4625.265-2684.669Z" fill="#07085b"/>
              </g>
            </g>
          </g>
          <g id="Group_35" data-name="Group 35">
            <g id="Group_34" data-name="Group 34">
              <g id="Group_26" data-name="Group 26">
                <path id="Path_47" data-name="Path 47" d="M-4626.918-2683.494q-.009.188-.016.384Q-4626.927-2683.306-4626.918-2683.494Z" fill="#06bfad"/>
              </g>
              <g id="Group_27" data-name="Group 27">
                <path id="Path_48" data-name="Path 48" d="M-4626.935-2683.1c0,.133-.01.271-.014.411C-4626.945-2682.832-4626.94-2682.97-4626.935-2683.1Z" fill="#06bfad"/>
              </g>
              <g id="Group_28" data-name="Group 28">
                <path id="Path_49" data-name="Path 49" d="M-4626.951-2682.637c0,.145-.008.294-.011.446C-4626.959-2682.343-4626.955-2682.492-4626.951-2682.637Z" fill="#06bfad"/>
              </g>
              <g id="Group_29" data-name="Group 29">
                <path id="Path_50" data-name="Path 50" d="M-4626.894-2683.929c-.007.115-.013.235-.02.358C-4626.907-2683.694-4626.9-2683.814-4626.894-2683.929Z" fill="#06bfad"/>
              </g>
              <g id="Group_30" data-name="Group 30">
                <path id="Path_51" data-name="Path 51" d="M-4626.891-2686.356c4.3,4.538,12.889,11.083,12.889,11.083l1.566.6-1.566-.6-4.841,42.85s-3.451.657-5.422-.411C-4624.265-2632.834-4627.172-2673.622-4626.891-2686.356Z" fill="#07085b"/>
              </g>
              <g id="Group_31" data-name="Group 31">
                <path id="Path_52" data-name="Path 52" d="M-4594.528-2632.423a13.443,13.443,0,0,1-2.849.448,13.443,13.443,0,0,0,2.849-.448Z" fill="#06bfad"/>
              </g>
              <g id="Group_32" data-name="Group 32">
                <path id="Path_53" data-name="Path 53" d="M-4599.1-2632.092q.209.042.423.069Q-4598.892-2632.05-4599.1-2632.092Z" fill="#06bfad"/>
              </g>
              <g id="Group_33" data-name="Group 33">
                <path id="Path_54" data-name="Path 54" d="M-4597.377-2631.975a8.369,8.369,0,0,1-1.086-.024A8.369,8.369,0,0,0-4597.377-2631.975Z" fill="#06bfad"/>
              </g>
            </g>
          </g>
          <path id="Path_55" data-name="Path 55" d="M-4600.278-2681.917l.821,7.064c-2.172.841-7.465,1.739-11.453-6.985-1.258-2.752-1.581-4.732-1.35-6.154a56.719,56.719,0,0,1,6.889,2.338Z" fill="#050645"/>
          <path id="Path_56" data-name="Path 56" d="M-4619.423-2710.749c.241,0,3.855-8.191,3.855-8.191,3.092,2.168,7.288.663,7.288.663s16.884,30.9,5.561,35.716-22-1.044-22-1.044-2.409-6.264-2.409-6.505S-4619.664-2710.749-4619.423-2710.749Z" fill="#daeef7"/>
          <path id="Path_57" data-name="Path 57" d="M-4597.419-2745.441s.731,14.659-.642,17.346c-4.558,8.914-10.219,9.818-10.219,9.818s-1.948,31.178-.342,38.647c0,0,5.341,1.647,13.211-2.048,0,0-6.023-24.172-5.7-27.224,0,0,9.637-8.592,9.958-18.711a68.339,68.339,0,0,0-2.329-19.113Z" fill="#55769f"/>
          <path id="Path_58" data-name="Path 58" d="M-4623.4-2680.754a142.345,142.345,0,0,1,3.252-22.607c2.651-11,4.578-15.579,4.578-15.579-3.554-3.915-2.963-7.454-2.65-12.046.361-5.3,5.541-15.9,5.541-15.9l-3.493-2.288c-16.744,20.116-7.469,36.138-7.469,36.138s-6.264,22.164-7.107,28.91A51.086,51.086,0,0,0-4623.4-2680.754Z" fill="#55769f"/>
          <path id="Path_59" data-name="Path 59" d="M-4601.276-2708.935a3.738,3.738,0,0,1-.673-.64,6.794,6.794,0,0,1-1.332-2.9,8.418,8.418,0,0,0,1.433,2.815,3.418,3.418,0,0,0,.783.715l-.048.043c0,.02,0,.042-.005.064a1.832,1.832,0,0,1-1.273-.3,5.865,5.865,0,0,1-1.071-.768,7.736,7.736,0,0,0,1.11.691A2.4,2.4,0,0,0-4601.276-2708.935Z" fill="#fff"/>
          <path id="Path_60" data-name="Path 60" d="M-4623.511-2713.112a3.684,3.684,0,0,0,.765-.7,8.183,8.183,0,0,0,1.433-2.815,6.8,6.8,0,0,1-1.332,2.9,3.705,3.705,0,0,1-.673.64,1.5,1.5,0,0,0,.471-.055,3.046,3.046,0,0,0,.6-.224,7.65,7.65,0,0,0,1.11-.691,5.9,5.9,0,0,1-1.071.768,3.161,3.161,0,0,1-.615.258,1.3,1.3,0,0,1-.686.035l-.128-.035Z" fill="#fff"/>
          <path id="Path_61" data-name="Path 61" d="M-4616.746-2733.49l-.339,3.961.626.394,1.157-4.824Z" fill="#07085b"/>
          <path id="Path_62" data-name="Path 62" d="M-4615.9-2729.937a1.517,1.517,0,0,1-.988,1.874,1.518,1.518,0,0,1-1.612-1.376,1.518,1.518,0,0,1,.989-1.874A1.519,1.519,0,0,1-4615.9-2729.937Z" fill="#f99893"/>
          <path id="Path_63" data-name="Path 63" d="M-4616.931-2726.275a13.1,13.1,0,0,1-.056-3.328c.022-.216.031-.433.037-.65a7.063,7.063,0,0,1,.588-2.659,7.087,7.087,0,0,1,7.328-4.189,7.069,7.069,0,0,1,6.08,8.4,1.528,1.528,0,0,1,1.37.165,1.907,1.907,0,0,1,.152,2.659,1.906,1.906,0,0,1-2.56.731,1.36,1.36,0,0,1-.271-.258,6.626,6.626,0,0,1-7.652,4.664A6.505,6.505,0,0,1-4616.931-2726.275Z" fill="#ffc0bb"/>
          <path id="Path_64" data-name="Path 64" d="M-4609.266-2729.443a.618.618,0,0,0,.582.85.614.614,0,0,0,.561-.384.617.617,0,0,0-.582-.851A.614.614,0,0,0-4609.266-2729.443Z" fill="#333"/>
          <path id="Path_65" data-name="Path 65" d="M-4614.517-2730.229a.619.619,0,0,0,.583.85.616.616,0,0,0,.561-.385.619.619,0,0,0-.583-.85A.614.614,0,0,0-4614.517-2730.229Z" fill="#333"/>
          <path id="Path_66" data-name="Path 66" d="M-4610.083-2725.128a4.042,4.042,0,0,1-.992.34,3.108,3.108,0,0,1-1.032.04,2.681,2.681,0,0,1-.971-.339,3.714,3.714,0,0,1-.807-.667,2.855,2.855,0,0,0,.757.748,2.436,2.436,0,0,0,1,.38,2.793,2.793,0,0,0,1.07-.07A3.05,3.05,0,0,0-4610.083-2725.128Z" fill="#f99893"/>
          <path id="Path_67" data-name="Path 67" d="M-4609.765-2730.7a5.74,5.74,0,0,1,.922-.1,3.032,3.032,0,0,1,.858.1,2.8,2.8,0,0,1,.788.342c.337.192.579.427.756.542a2.055,2.055,0,0,0-.542-.821,2.016,2.016,0,0,0-.888-.5,2.106,2.106,0,0,0-1.016-.017A1.96,1.96,0,0,0-4609.765-2730.7Z" fill="#07085b"/>
          <path id="Path_68" data-name="Path 68" d="M-4612.217-2731.1a1.965,1.965,0,0,0-.689-.7,2.107,2.107,0,0,0-.968-.31,2.008,2.008,0,0,0-1,.185,2.057,2.057,0,0,0-.776.6,8.51,8.51,0,0,1,.89-.272,2.834,2.834,0,0,1,.856-.072,3.062,3.062,0,0,1,.845.179A5.887,5.887,0,0,1-4612.217-2731.1Z" fill="#07085b"/>
          <path id="Path_69" data-name="Path 69" d="M-4611.148-2730.321a8.806,8.806,0,0,0-.8.871,8.359,8.359,0,0,0-.692.971,2.313,2.313,0,0,0-.3.714c-.02.129-.01.255.206.468a2.877,2.877,0,0,0,.466.386,3.85,3.85,0,0,0,.517.3,6.455,6.455,0,0,1-.84-.807,1.1,1.1,0,0,1-.135-.211.45.45,0,0,1,.041-.22,3.185,3.185,0,0,1,.257-.5c.195-.333.417-.655.634-.981S-4611.36-2729.987-4611.148-2730.321Z" fill="#f99893"/>
          <path id="Path_70" data-name="Path 70" d="M-4616.008-2737.719s-2.081-.4.482-1.657,8.846-1.988,12.132.826c0,0,1.1-1.418,2.1-.795s-1.034,1.311-1.034,1.311,1.387.267,1.655,1.038c.2.57-.651.4-1.106.274.753.311,2.97,2.405.091,8.124-.509-.239-3.805-4.939-3.805-4.939s-6.623,2.176-5.416.371c0,0-7.719,1.942-5.848-1.557C-4616.76-2734.723-4619.6-2735.152-4616.008-2737.719Z" fill="#07085b"/>
          <path id="Path_71" data-name="Path 71" d="M-4601.691-2728.6a1.356,1.356,0,0,0-1.263-.1c-.763.284-1.249,2-1.249,2s-2.5,2.047-1.28-6.874c1.2-8.765,2.856,1.459,2.856,1.459Z" fill="#07085b"/>
        </g>
      </g>
      <g id="Group_40" data-name="Group 40">
        <path id="Path_72" data-name="Path 72" d="M-4598.044-2756.03l-11.429-.814a1.049,1.049,0,0,1-.972-1.122h0a1.048,1.048,0,0,1,1.121-.972l11.429.814a1.05,1.05,0,0,1,.973,1.121h0A1.051,1.051,0,0,1-4598.044-2756.03Z" fill="#feb546"/>
        <path id="Path_73" data-name="Path 73" d="M-4601.336-2790.446l3.994,9.791,10.33,2.26-8.077,6.824,1.042,10.522-8.986-5.573-9.686,4.243,2.523-10.268-7.028-7.9,10.546-.773Z" fill="#feb546"/>
        <g id="Group_39" data-name="Group 39">
          <g id="Group_38" data-name="Group 38">
            <path id="Path_74" data-name="Path 74" d="M-4601.336-2790.446l-1.023,14.366,5.018-4.576Z" fill="#f4a640"/>
            <path id="Path_75" data-name="Path 75" d="M-4587.012-2778.4l-15.347,2.315,7.27,4.509Z" fill="#f4a640"/>
            <path id="Path_76" data-name="Path 76" d="M-4602.359-2776.08l-4.318-5.24-10.546.773Z" fill="#f4a640"/>
            <path id="Path_77" data-name="Path 77" d="M-4612.718-2762.379l10.359-13.7-7.835,3.433Z" fill="#f4a640"/>
            <path id="Path_78" data-name="Path 78" d="M-4594.047-2761.049l-8.312-15.031-.673,9.458Z" fill="#f4a640"/>
          </g>
        </g>
        <rect id="Rectangle_50" data-name="Rectangle 50" width="17.408" height="6.118" transform="translate(-4612.457 -2756.833) rotate(4.075)" fill="#6f747a"/>
        <rect id="Rectangle_51" data-name="Rectangle 51" width="0.668" height="17.408" transform="translate(-4612.891 -2750.73) rotate(-85.926)" fill="#cdd6e0" style="mix-blend-mode: multiply;isolation: isolate"/>
        <rect id="Rectangle_52" data-name="Rectangle 52" width="0.668" height="17.408" transform="translate(-4612.492 -2756.337) rotate(-85.926)" fill="#cdd6e0" style="mix-blend-mode: multiply;isolation: isolate"/>
        <path id="Path_79" data-name="Path 79" d="M-4595.244-2755.307l-17.1-1.218a.788.788,0,0,1-.729-.84h0a.788.788,0,0,1,.84-.729l17.1,1.219a.786.786,0,0,1,.728.84h0A.786.786,0,0,1-4595.244-2755.307Z" fill="#f4a640"/>
        <rect id="Rectangle_53" data-name="Rectangle 53" width="1.572" height="18.719" rx="0.211" transform="matrix(0.071, -0.997, 0.997, 0.071, -4613.763, -2749.376)" fill="#6f747a"/>
        <path id="Path_80" data-name="Path 80" d="M-4600.864-2751.493l-6.6-.471a1.49,1.49,0,0,1-1.38-1.591h0a1.49,1.49,0,0,1,1.592-1.38l6.6.47a1.489,1.489,0,0,1,1.379,1.592h0A1.49,1.49,0,0,1-4600.864-2751.493Z" fill="#feb546"/>
        <path id="Path_81" data-name="Path 81" d="M-4607.432-2752.459a.994.994,0,0,1-.9-1.183,1.022,1.022,0,0,1,1.087-.795l6.518.464a1.022,1.022,0,0,1,.963.941.993.993,0,0,1-1.062,1.043Z" fill="#d9d9d9" style="mix-blend-mode: multiply;isolation: isolate"/>
        <path id="Path_82" data-name="Path 82" d="M-4601.818-2757.766l-3.673-.262.025-.34a18.427,18.427,0,0,1,2.433-8.254h0a17.88,17.88,0,0,1,1.24,8.515Z" fill="#feb546"/>
      </g>
    </g>
  </g>
</svg>
