<svg xmlns="http://www.w3.org/2000/svg" width="397.066" height="335.752" viewBox="0 0 397.066 335.752">
  <g id="logo" transform="translate(-339.181 -7309.37)">
    <g id="Group_979" data-name="Group 979" transform="translate(138 6886)">
      <g id="Group_975" data-name="Group 975" transform="translate(-420.06 -5071.395)">
        <path id="Path_1695" data-name="Path 1695" d="M788.937,5808.23l11.962,11.429a1.794,1.794,0,0,1,.435,1.974,14.249,14.249,0,0,1-10.351,8.851,1.762,1.762,0,0,1-1.528-.436L776.6,5818.412c-14.546-15.039-2.876-24.737-2.876-24.737a30.568,30.568,0,0,0,8.027-20.518c0-17.724-15.56-32.079-34.791-32.079s-34.791,14.355-34.791,32.079,15.56,32.106,34.791,32.106c.519,0,10.709,12.011,13.482,15.944a.653.653,0,0,1-.4,1.007,58.9,58.9,0,0,1-13.086,1.512c-30.271,0-54.816-22.627-54.816-50.569,0-27.915,24.545-50.542,54.816-50.542s54.816,22.627,54.816,50.542a48.166,48.166,0,0,1-12.9,32.579A1.776,1.776,0,0,0,788.937,5808.23Z" fill="#526bb1"/>
        <g id="Group_974" data-name="Group 974">
          <path id="Path_1696" data-name="Path 1696" d="M645.82,5745.3v21.274h34.352v18.538H645.82v22.571h38.665v19.69H621.241V5725.754h63.244v19.55Z" fill="#f6921e"/>
          <path id="Path_1697" data-name="Path 1697" d="M835.7,5725.754V5784.4q0,10.063,4.526,15.378t13.151,5.319q8.626,0,13.151-5.319t4.531-15.378v-58.646h24.579V5784.4q0,14.376-5.6,24.221a36.448,36.448,0,0,1-15.31,14.8,47.468,47.468,0,0,1-21.922,4.961,45.847,45.847,0,0,1-21.559-4.889,34.682,34.682,0,0,1-14.661-14.8q-5.322-9.918-5.32-24.294v-58.646Z" fill="#f6921e"/>
          <path id="Path_1698" data-name="Path 1698" d="M973.461,5807.542h44.846v19.835H946.152v-18.683l44.129-63.249H946.728v-19.691h71.293v18.684Z" fill="#f6921e"/>
        </g>
      </g>
      <rect id="Rectangle_565" data-name="Rectangle 565" width="25" height="101" transform="translate(489.314 653.685)" fill="#f6921e"/>
      <path id="Path_1699" data-name="Path 1699" d="M886.814,5606.124c17.693-4.452,30.666-19.183,30.666-36.675,0-21.025-18.748-38.065-41.865-38.065s-41.864,17.04-41.864,38.065H820.426c0-21.025-18.748-38.065-41.865-38.065s-41.864,17.04-41.864,38.065c0,17.492,12.989,32.239,30.683,36.675-5.005-.2-14.915.134-22.113-5.758,0,0-4.988,40.827,34.818,64.613l-4.436-11.248h2.059s24.188,25.862,49.364,23.485c25.192,2.393,49.38-23.485,49.38-23.485h2.059l-4.436,11.248c39.806-23.786,34.818-66.287,34.818-66.287C901.7,5604.568,891.819,5605.923,886.814,5606.124Zm-142.5-36.675c0-17.191,15.333-31.135,34.248-31.135s34.249,13.944,34.249,31.135a28.782,28.782,0,0,1-4.787,15.868,32.116,32.116,0,0,1-8.789,8.939,36.189,36.189,0,0,1-20.673,6.328C759.646,5600.584,744.313,5586.64,744.313,5569.449Zm120.238,79.21c-7.935,21.844-34.433,23.92-37.412,24.087H827.1c-2.511-.117-29.494-2.025-37.5-24.087,0,0-9.357-17.928,5.39-37.747,0,0,8.454-8.454,15.451-16.806a35.873,35.873,0,0,0,3.615-4.5,35.292,35.292,0,0,0,4.654-9.458,32.473,32.473,0,0,0,1.038-3.984H834.42a32.473,32.473,0,0,0,1.038,3.984,35.14,35.14,0,0,0,4.771,9.625c1.071,1.406,2.259,2.863,3.465,4.319,7.013,8.353,15.467,16.823,15.467,16.823C873.908,5630.731,864.551,5648.659,864.551,5648.659Zm11.064-48.075a36.169,36.169,0,0,1-20.79-6.412.289.289,0,0,0-.083-.066,31.973,31.973,0,0,1-8.537-8.705,28.787,28.787,0,0,1-4.838-15.952c0-17.191,15.333-31.135,34.248-31.135s34.249,13.944,34.249,31.135S894.531,5600.584,875.615,5600.584Z" transform="translate(-420.06 -5071.395)" fill="#526bb1"/>
      <path id="Path_1700" data-name="Path 1700" d="M827.45,5600.583l-8.4,7.4,8.4,13.321,7.665-13.744Z" transform="translate(-420.06 -5071.395)" fill="#526bb1"/>
      <path id="Path_1701" data-name="Path 1701" d="M888.094,5564.745c0,6.294-5.59,11.416-12.487,11.416-6.88,0-12.471-5.122-12.471-11.416a8.434,8.434,0,0,1,.184-1.841,7.115,7.115,0,0,0,7.081,5.206c4.017,0,7.265-2.98,7.265-6.646,0-3.683-3.248-6.662-7.265-6.662a5.451,5.451,0,0,0-1.054.084,12.984,12.984,0,0,1,6.26-1.557C882.5,5553.329,888.094,5558.434,888.094,5564.745Z" transform="translate(-420.06 -5071.395)" fill="#526bb1"/>
      <path id="Path_1702" data-name="Path 1702" d="M770.1,5569.449c0,6.294,5.591,11.416,12.487,11.416,6.88,0,12.471-5.122,12.471-11.416a8.386,8.386,0,0,0-.184-1.842,7.113,7.113,0,0,1-7.081,5.206c-4.017,0-7.265-2.979-7.265-6.645,0-3.683,3.248-6.662,7.265-6.662a5.49,5.49,0,0,1,1.054.083,13,13,0,0,0-6.26-1.556C775.693,5558.033,770.1,5563.138,770.1,5569.449Z" transform="translate(-420.06 -5071.395)" fill="#526bb1"/>
      <path id="Path_1703" data-name="Path 1703" d="M860.5,5692.31v-3.431a2.321,2.321,0,0,0-2.326-2.327h-.419a2.322,2.322,0,0,0-2.327,2.327v3.431h-2.544l-2.427-.017v-3.414a2.322,2.322,0,0,0-2.327-2.327h-.418a2.322,2.322,0,0,0-2.327,2.327v3.381l-7.081-.034c.05-6.846,6.612-12.437,14.58-12.437,8,0,14.6,5.641,14.6,12.521Z" transform="translate(-420.06 -5071.395)" fill="#526bb1"/>
      <path id="Path_1704" data-name="Path 1704" d="M808.879,5692.31v-3.431a2.322,2.322,0,0,0-2.327-2.327h-.419a2.321,2.321,0,0,0-2.326,2.327v3.431h-2.545l-2.427-.017v-3.414a2.322,2.322,0,0,0-2.327-2.327h-.418a2.322,2.322,0,0,0-2.327,2.327v3.381l-7.08-.034c.05-6.846,6.612-12.437,14.579-12.437,8,0,14.6,5.641,14.6,12.521Z" transform="translate(-420.06 -5071.395)" fill="#526bb1"/>
      <path id="Path_1705" data-name="Path 1705" d="M919.071,5494.764v7.917H882.228v23.368c-39.337-6.98-56.511,27.285-56.511,27.285-20.573-35.1-57.248-26.649-57.248-26.649v-24.941H738.388v18.848l3.7,3.8-5.34,11.316-5.44-11.316,3.8-3.8v-18.848h-3.213v-6.98Z" transform="translate(-420.06 -5071.395)" fill="#526bb1"/>
    </g>
  </g>
</svg>
