<svg xmlns="http://www.w3.org/2000/svg" viewBox="0 0 35.83 21.36"><defs><style>.cls-1{fill:#4d4d4d;}</style></defs><g id="Layer_2" data-name="Layer 2"><g id="Layer_1-2" data-name="Layer 1"><path class="cls-1" d="M17.92,0C11.07,0,4.86,3.75.28,9.83a1.43,1.43,0,0,0,0,1.69c4.58,6.09,10.79,9.84,17.64,9.84s13-3.75,17.63-9.83a1.4,1.4,0,0,0,0-1.69C31,3.75,24.76,0,17.92,0Zm.49,18.2a7.54,7.54,0,1,1,7-7A7.53,7.53,0,0,1,18.41,18.2Zm-.23-3.47A4.06,4.06,0,1,1,22,10.94,4.06,4.06,0,0,1,18.18,14.73Z"/></g></g></svg>