<svg xmlns="http://www.w3.org/2000/svg" xmlns:xlink="http://www.w3.org/1999/xlink" width="27" height="27" viewBox="0 0 27 27">
  <defs>
    <clipPath id="clip-path">
      <rect id="Rectangle_7" data-name="Rectangle 7" width="27" height="27" fill="#fff"/>
    </clipPath>
  </defs>
  <g id="Mask_Group_3" data-name="Mask Group 3" clip-path="url(#clip-path)">
    <g id="Page-1" transform="translate(0.5 2.233)">
      <g id="_022---Cash" data-name="022---Cash">
        <path id="Shape" d="M25.133,12H7.367a.433.433,0,0,0,0,.867H9.986a6.724,6.724,0,0,0,0,11.267H.867V12.867H5.2A.433.433,0,1,0,5.2,12H.867A.867.867,0,0,0,0,12.867V24.133A.867.867,0,0,0,.867,25H25.133A.867.867,0,0,0,26,24.133V12.867A.867.867,0,0,0,25.133,12ZM7.8,18.5A5.436,5.436,0,0,1,13,12.867,5.436,5.436,0,0,1,18.2,18.5,5.436,5.436,0,0,1,13,24.133,5.436,5.436,0,0,1,7.8,18.5Zm17.333,5.633h-9.12a6.724,6.724,0,0,0,0-11.267h9.12Z" transform="translate(0 -7.233)"/>
        <path id="Shape-2" data-name="Shape" d="M39.279,1.09a.867.867,0,0,0-.66-.048L29.284,4.171a.434.434,0,0,0,.276.823l9.331-3.128.958,2.855a.434.434,0,1,0,.823-.275l-.958-2.853a.854.854,0,0,0-.436-.5Z" transform="translate(-16.426 -0.999)"/>
        <path id="Shape-3" data-name="Shape" d="M15.131,43.751,5.8,46.878l-.958-2.855a.434.434,0,1,0-.823.275l.956,2.853a.854.854,0,0,0,.433.5.87.87,0,0,0,.386.091.882.882,0,0,0,.274-.043L15.4,44.573a.434.434,0,0,0-.276-.823Z" transform="translate(-2.264 -25.211)"/>
        <path id="Shape-4" data-name="Shape" d="M28.467,20.383a.433.433,0,1,0,.867,0A2.017,2.017,0,0,0,27.6,18.473v-.039a.433.433,0,0,0-.867,0v.039a1.92,1.92,0,0,0,0,3.821v2.139a1.116,1.116,0,0,1-.867-1.017.433.433,0,0,0-.867,0,2.017,2.017,0,0,0,1.733,1.911v.039a.433.433,0,0,0,.867,0v-.039a1.92,1.92,0,0,0,0-3.821V19.367A1.116,1.116,0,0,1,28.467,20.383Zm-2.6,0a1.116,1.116,0,0,1,.867-1.017V21.4A1.116,1.116,0,0,1,25.867,20.383Zm2.6,3.033a1.116,1.116,0,0,1-.867,1.017V22.4A1.116,1.116,0,0,1,28.467,23.417Z" transform="translate(-14.167 -10.633)"/>
        <path id="Shape-5" data-name="Shape" d="M50.433,34.6h1.733a.433.433,0,0,0,.433-.433V32.433a.433.433,0,0,0-.867,0v1.3h-1.3a.433.433,0,0,0,0,.867Z" transform="translate(-28.333 -18.566)"/>
        <path id="Shape-6" data-name="Shape" d="M4.433,32A.433.433,0,0,0,4,32.433v1.733a.433.433,0,0,0,.433.433H6.167a.433.433,0,0,0,0-.867h-1.3v-1.3A.433.433,0,0,0,4.433,32Z" transform="translate(-2.267 -18.566)"/>
        <path id="Shape-7" data-name="Shape" d="M6.167,16H4.433A.433.433,0,0,0,4,16.433v1.733a.433.433,0,0,0,.867,0v-1.3h1.3a.433.433,0,1,0,0-.867Z" transform="translate(-2.267 -9.499)"/>
        <path id="Shape-8" data-name="Shape" d="M50.433,16.867h1.3v1.3a.433.433,0,1,0,.867,0V16.433A.433.433,0,0,0,52.167,16H50.433a.433.433,0,1,0,0,.867Z" transform="translate(-28.333 -9.499)"/>
      </g>
    </g>
  </g>
</svg>
