<svg xmlns="http://www.w3.org/2000/svg" width="119.031" height="100.651" viewBox="0 0 119.031 100.651">
  <g id="sml_logo" data-name="sml logo" transform="translate(-2729.198 -7432.92)">
    <g id="Group_1005" data-name="Group 1005" transform="translate(2528.017 7009.551)">
      <g id="Group_975" data-name="Group 975" transform="translate(201.181 491.674)">
        <path id="Path_1695" data-name="Path 1695" d="M721.159,5748.28l3.586,3.427a.537.537,0,0,1,.13.591,4.272,4.272,0,0,1-3.1,2.653.528.528,0,0,1-.458-.13l-3.854-3.488c-4.361-4.508-.862-7.416-.862-7.416a9.163,9.163,0,0,0,2.406-6.15c0-5.313-4.665-9.617-10.43-9.617s-10.43,4.3-10.43,9.617,4.664,9.625,10.43,9.625a51.9,51.9,0,0,1,4.042,4.78.2.2,0,0,1-.119.3,17.657,17.657,0,0,1-3.923.453c-9.075,0-16.433-6.783-16.433-15.159s7.358-15.151,16.433-15.151,16.433,6.783,16.433,15.151a14.438,14.438,0,0,1-3.867,9.766A.532.532,0,0,0,721.159,5748.28Z" transform="translate(-670.888 -5722.615)" fill="#fff"/>
        <g id="Group_974" data-name="Group 974" transform="translate(0 0.941)">
          <path id="Path_1696" data-name="Path 1696" d="M628.609,5731.615v6.377h10.3v5.557h-10.3v6.766H640.2v5.9H621.241v-30.464H640.2v5.861Z" transform="translate(-621.241 -5725.754)" fill="#f6921e"/>
          <path id="Path_1697" data-name="Path 1697" d="M818.584,5725.754v17.581a6.919,6.919,0,0,0,1.357,4.61,5.67,5.67,0,0,0,7.885,0,6.918,6.918,0,0,0,1.358-4.61v-17.581h7.368v17.581a14.48,14.48,0,0,1-1.68,7.261,10.925,10.925,0,0,1-4.59,4.437,14.229,14.229,0,0,1-6.572,1.487,13.745,13.745,0,0,1-6.463-1.465,10.4,10.4,0,0,1-4.4-4.437,15.237,15.237,0,0,1-1.595-7.283v-17.581Z" transform="translate(-754.295 -5725.754)" fill="#f6921e"/>
          <path id="Path_1698" data-name="Path 1698" d="M954.339,5750.272h13.444v5.946h-21.63v-5.6l13.229-18.96H946.325v-5.9H967.7v5.6Z" transform="translate(-848.751 -5725.754)" fill="#f6921e"/>
        </g>
      </g>
      <rect id="Rectangle_565" data-name="Rectangle 565" width="7.494" height="30.278" transform="translate(287.557 492.413)" fill="#f6921e"/>
      <path id="Path_1699" data-name="Path 1699" d="M781.7,5553.789c5.3-1.334,9.193-5.75,9.193-10.994,0-6.3-5.62-11.411-12.55-11.411s-12.55,5.108-12.55,11.411H761.8c0-6.3-5.62-11.411-12.55-11.411s-12.55,5.108-12.55,11.411c0,5.244,3.894,9.665,9.2,10.994-1.5-.06-4.471.04-6.629-1.726a20.731,20.731,0,0,0,10.438,19.37l-1.33-3.372h.617s7.251,7.753,14.8,7.04c7.552.718,14.8-7.04,14.8-7.04h.617l-1.33,3.372a21.357,21.357,0,0,0,10.438-19.872A11.677,11.677,0,0,1,781.7,5553.789Zm-42.719-10.994c0-5.154,4.6-9.334,10.267-9.334s10.267,4.18,10.267,9.334a8.629,8.629,0,0,1-1.435,4.757,9.626,9.626,0,0,1-2.635,2.68,10.849,10.849,0,0,1-6.2,1.9C743.577,5552.128,738.98,5547.948,738.98,5542.795Zm36.045,23.745c-2.379,6.548-10.322,7.171-11.215,7.221h-.01c-.753-.035-8.842-.607-11.24-7.221,0,0-2.8-5.374,1.616-11.315,0,0,2.534-2.534,4.632-5.038a10.769,10.769,0,0,0,1.084-1.35,10.577,10.577,0,0,0,1.4-2.835,9.728,9.728,0,0,0,.311-1.194h4.4A9.728,9.728,0,0,0,766.3,5546a10.533,10.533,0,0,0,1.43,2.886c.321.421.677.858,1.039,1.294,2.1,2.5,4.637,5.043,4.637,5.043C777.83,5561.166,775.025,5566.54,775.025,5566.54Zm3.317-14.412a10.841,10.841,0,0,1-6.232-1.922.087.087,0,0,0-.025-.02,9.587,9.587,0,0,1-2.559-2.61,8.628,8.628,0,0,1-1.45-4.782c0-5.154,4.6-9.334,10.267-9.334s10.267,4.18,10.267,9.334S784.012,5552.128,778.342,5552.128Z" transform="translate(-500.905 -5097.037)" fill="#fff"/>
      <path id="Path_1700" data-name="Path 1700" d="M821.565,5600.583l-2.52,2.218,2.52,3.994,2.3-4.12Z" transform="translate(-558.567 -5145.492)" fill="#fff"/>
      <path id="Path_1701" data-name="Path 1701" d="M870.618,5556.751a3.756,3.756,0,0,1-7.482,0,2.532,2.532,0,0,1,.055-.552,2.133,2.133,0,0,0,2.123,1.561,2,2,0,1,0,0-3.989,1.61,1.61,0,0,0-.316.025,3.894,3.894,0,0,1,1.877-.467A3.592,3.592,0,0,1,870.618,5556.751Z" transform="translate(-589.44 -5112.403)" fill="#fff"/>
      <path id="Path_1702" data-name="Path 1702" d="M770.1,5561.456a3.756,3.756,0,0,0,7.482,0,2.509,2.509,0,0,0-.055-.552,2.132,2.132,0,0,1-2.123,1.561,2,2,0,1,1,0-3.989,1.648,1.648,0,0,1,.316.025,3.9,3.9,0,0,0-1.877-.466A3.592,3.592,0,0,0,770.1,5561.456Z" transform="translate(-524.296 -5115.697)" fill="#fff"/>
      <path id="Path_1703" data-name="Path 1703" d="M844.955,5683.542v-1.029a.7.7,0,0,0-.7-.7h-.126a.7.7,0,0,0-.7.7v1.029h-.763l-.728,0v-1.024a.7.7,0,0,0-.7-.7h-.125a.7.7,0,0,0-.7.7v1.014l-2.123-.01c.015-2.053,1.982-3.729,4.371-3.729s4.376,1.691,4.376,3.753Z" transform="translate(-572.05 -5200.953)" fill="#fff"/>
      <path id="Path_1704" data-name="Path 1704" d="M793.337,5683.542v-1.029a.7.7,0,0,0-.7-.7h-.126a.7.7,0,0,0-.7.7v1.029h-.763l-.728,0v-1.024a.7.7,0,0,0-.7-.7H789.5a.7.7,0,0,0-.7.7v1.014l-2.122-.01c.015-2.053,1.982-3.729,4.37-3.729s4.376,1.691,4.376,3.753Z" transform="translate(-535.906 -5200.953)" fill="#fff"/>
      <path id="Path_1705" data-name="Path 1705" d="M787.6,5494.764v2.374H776.55v7c-11.792-2.093-16.941,8.18-16.941,8.18a16.241,16.241,0,0,0-17.162-7.989v-7.477H733.43v5.65l1.109,1.139-1.6,3.392-1.631-3.392,1.139-1.139v-5.65h-.963v-2.092Z" transform="translate(-497.131 -5071.395)" fill="#fff"/>
    </g>
  </g>
</svg>
