<svg xmlns="http://www.w3.org/2000/svg" width="57.452" height="57.452" viewBox="0 0 57.452 57.452">
  <g id="Group_1009" data-name="Group 1009" transform="translate(-64 -1249.548)">
    <g id="Group_991" data-name="Group 991">
      <g id="Group_570" data-name="Group 570" transform="translate(-392.411 -8324.937)">
        <path id="Path_917" data-name="Path 917" d="M510.272,9588.847H460a3.594,3.594,0,0,1-3.59-3.59v-7.182a3.6,3.6,0,0,1,3.59-3.591h50.271a3.6,3.6,0,0,1,3.591,3.591v7.182A3.594,3.594,0,0,1,510.272,9588.847ZM460,9576.878a1.2,1.2,0,0,0-1.2,1.2v7.182a1.2,1.2,0,0,0,1.2,1.2h50.271a1.2,1.2,0,0,0,1.2-1.2v-7.182a1.2,1.2,0,0,0-1.2-1.2Z" fill="#6a8ad3"/>
      </g>
      <g id="Group_571" data-name="Group 571" transform="translate(-392.411 -8324.937)">
        <path id="Path_918" data-name="Path 918" d="M479.152,9631.937H460a3.6,3.6,0,0,1-3.59-3.591v-31.12a3.6,3.6,0,0,1,3.59-3.591h19.151a3.6,3.6,0,0,1,3.591,3.591v31.12A3.6,3.6,0,0,1,479.152,9631.937ZM460,9596.029a1.2,1.2,0,0,0-1.2,1.2v31.12a1.2,1.2,0,0,0,1.2,1.2h19.151a1.2,1.2,0,0,0,1.2-1.2v-31.12a1.2,1.2,0,0,0-1.2-1.2Z" fill="#6a8ad3"/>
      </g>
      <g id="Group_572" data-name="Group 572" transform="translate(-392.411 -8324.937)">
        <path id="Path_919" data-name="Path 919" d="M510.272,9610.392H491.121a3.6,3.6,0,0,1-3.59-3.591v-9.575a3.6,3.6,0,0,1,3.59-3.591h19.151a3.6,3.6,0,0,1,3.591,3.591v9.575A3.6,3.6,0,0,1,510.272,9610.392Zm-19.151-14.362a1.2,1.2,0,0,0-1.2,1.2v9.575a1.2,1.2,0,0,0,1.2,1.2h19.151a1.2,1.2,0,0,0,1.2-1.2v-9.575a1.2,1.2,0,0,0-1.2-1.2Z" fill="#6a8ad3"/>
      </g>
      <g id="Group_573" data-name="Group 573" transform="translate(-392.411 -8324.937)">
        <path id="Path_920" data-name="Path 920" d="M510.272,9631.937H491.121a3.6,3.6,0,0,1-3.59-3.591v-9.574a3.6,3.6,0,0,1,3.59-3.592h19.151a3.6,3.6,0,0,1,3.591,3.592v9.574A3.6,3.6,0,0,1,510.272,9631.937Zm-19.151-14.362a1.2,1.2,0,0,0-1.2,1.2v9.574a1.2,1.2,0,0,0,1.2,1.2h19.151a1.2,1.2,0,0,0,1.2-1.2v-9.574a1.2,1.2,0,0,0-1.2-1.2Z" fill="#6a8ad3"/>
      </g>
    </g>
  </g>
</svg>
