<svg xmlns="http://www.w3.org/2000/svg" width="31.692" height="21.127" viewBox="0 0 31.692 21.127">
  <g id="Group_1013" data-name="Group 1013" transform="translate(-117.427 -348)">
    <g id="Group_63" data-name="Group 63" transform="translate(-392.911 -9800.793)">
      <g id="Group_62" data-name="Group 62">
        <path id="Path_83" data-name="Path 83" d="M540.405,10148.793H511.964a1.631,1.631,0,0,0-1.626,1.625v17.877a1.63,1.63,0,0,0,1.626,1.625h28.441a1.629,1.629,0,0,0,1.625-1.625v-17.877A1.63,1.63,0,0,0,540.405,10148.793Zm-.61,1.219-12.676,9.507a1.7,1.7,0,0,1-1.87,0l-12.675-9.507Zm-6.771,10.135,6.907,8.532.023.023H512.415c.007-.009.015-.016.022-.023l6.908-8.532a.61.61,0,0,0-.948-.768l-6.84,8.449v-17.055l12.961,9.721a2.913,2.913,0,0,0,3.332,0l12.961-9.721v17.055l-6.84-8.449a.61.61,0,0,0-.947.768Z" fill="#4d4d4d"/>
      </g>
    </g>
  </g>
</svg>
