<svg xmlns="http://www.w3.org/2000/svg" width="35.834" height="21.36" viewBox="0 0 35.834 21.36">
  <g id="Group_121" data-name="Group 121" transform="translate(-4111.776 -3828.536)">
    <path id="Path_249" data-name="Path 249" d="M4129.694,3828.536c-6.847,0-13.055,3.745-17.637,9.829a1.419,1.419,0,0,0,0,1.694c4.582,6.091,10.79,9.837,17.637,9.837s13.055-3.746,17.636-9.83a1.417,1.417,0,0,0,0-1.693C4142.749,3832.281,4136.54,3828.536,4129.694,3828.536Zm.491,18.2a7.537,7.537,0,1,1,7.029-7.029A7.541,7.541,0,0,1,4130.185,3846.736Zm-.227-3.474a4.058,4.058,0,1,1,3.789-3.79A4.052,4.052,0,0,1,4129.958,3843.262Z" fill="#4d4d4d"/>
  </g>
</svg>
