<svg xmlns="http://www.w3.org/2000/svg" width="30.152" height="30.149" viewBox="0 0 30.152 30.149">
  <g id="Group_1017" data-name="Group 1017" transform="translate(-114.17 -762.264)">
    <g id="Group_78" data-name="Group 78" transform="translate(-392.911 -9800.793)">
      <g id="Group_77" data-name="Group 77">
        <g id="Group_76" data-name="Group 76">
          <path id="Path_91" data-name="Path 91" d="M513.614,10576.116a.5.5,0,0,0-.5.5v3.015a.5.5,0,0,0,1.006,0v-3.015A.5.5,0,0,0,513.614,10576.116Z" fill="#4d4d4d"/>
          <path id="Path_92" data-name="Path 92" d="M513.668,10563.191l-4.751,1.9a2.324,2.324,0,0,0-1.836,2.481v21.111a2.319,2.319,0,0,0,1.823,2.478l4.774,1.91a2,2,0,0,0,.705.134,1.826,1.826,0,0,0,1.744-2.007v-26.14A1.8,1.8,0,0,0,513.668,10563.191Zm1.454,28.008c0,.6-.3,1-.739,1a.974.974,0,0,1-.341-.066l-4.776-1.911c-.948-.351-1.18-.653-1.18-1.539v-21.111c0-.885.232-1.187,1.192-1.543l4.754-1.9a1.012,1.012,0,0,1,.351-.07c.442,0,.739.4.739,1Z" fill="#4d4d4d"/>
          <path id="Path_93" data-name="Path 93" d="M517.572,10566.065h7.1a1.51,1.51,0,0,1,1.508,1.508v7.538a.5.5,0,1,0,1.005,0v-7.538a2.517,2.517,0,0,0-2.513-2.514h-7.1a.5.5,0,1,0,0,1.006Z" fill="#4d4d4d"/>
          <path id="Path_94" data-name="Path 94" d="M526.68,10580.639a.5.5,0,0,0-.5.5v7.538a1.511,1.511,0,0,1-1.508,1.509h-7.036a.5.5,0,0,0,0,1h7.036a2.516,2.516,0,0,0,2.513-2.514v-7.538A.5.5,0,0,0,526.68,10580.639Z" fill="#4d4d4d"/>
          <path id="Path_95" data-name="Path 95" d="M537.2,10577.935a.491.491,0,0,0-.109-.163l-5.025-5.026a.5.5,0,0,0-.71.711l4.167,4.168H518.64a.5.5,0,1,0,0,1h16.878l-4.167,4.168a.5.5,0,1,0,.71.71l5.025-5.024a.5.5,0,0,0,.109-.548Z" fill="#4d4d4d"/>
        </g>
      </g>
    </g>
  </g>
</svg>
