<svg xmlns="http://www.w3.org/2000/svg" width="18.043" height="31.842" viewBox="0 0 18.043 31.842">
  <g id="Group_1014" data-name="Group 1014" transform="translate(-122.117 -399.344)">
    <g id="Group_72" data-name="Group 72" transform="translate(-392.911 -9800.793)">
      <g id="Group_65" data-name="Group 65">
        <g id="Group_64" data-name="Group 64">
          <path id="Path_84" data-name="Path 84" d="M526.7,10201.729H521.4a.531.531,0,1,0,0,1.062H526.7a.531.531,0,1,0,0-1.062Z" fill="#4d4d4d"/>
        </g>
      </g>
      <g id="Group_67" data-name="Group 67">
        <g id="Group_66" data-name="Group 66">
          <path id="Path_85" data-name="Path 85" d="M530.418,10201.729h-.531a.531.531,0,1,0,0,1.062h.531a.531.531,0,1,0,0-1.062Z" fill="#4d4d4d"/>
        </g>
      </g>
      <g id="Group_69" data-name="Group 69">
        <g id="Group_68" data-name="Group 68">
          <path id="Path_86" data-name="Path 86" d="M531.153,10200.137H516.946a1.92,1.92,0,0,0-1.918,1.918v28a1.92,1.92,0,0,0,1.918,1.919h14.207a1.92,1.92,0,0,0,1.918-1.918v-28.006A1.92,1.92,0,0,0,531.153,10200.137Zm.857,29.923a.858.858,0,0,1-.857.858H516.946a.858.858,0,0,1-.857-.857v-28.006a.858.858,0,0,1,.857-.856h14.207a.858.858,0,0,1,.857.856v28Z" fill="#4d4d4d"/>
        </g>
      </g>
      <g id="Group_71" data-name="Group 71">
        <g id="Group_70" data-name="Group 70">
          <path id="Path_87" data-name="Path 87" d="M532.541,10203.321H515.558a.53.53,0,0,0-.53.53v22.289a.531.531,0,0,0,.53.531h16.983a.531.531,0,0,0,.53-.531v-22.289A.53.53,0,0,0,532.541,10203.321Zm-.531,22.29H516.089v-21.229H532.01Z" fill="#4d4d4d"/>
        </g>
      </g>
    </g>
  </g>
</svg>
