<svg xmlns="http://www.w3.org/2000/svg" width="49" height="49.784" viewBox="0 0 49 49.784">
  <g id="Group_1008" data-name="Group 1008" transform="translate(-665 -1254.216)">
    <path id="Path_924" data-name="Path 924" d="M1080.654,9579.152a12.181,12.181,0,1,0,12.182,12.181A12.181,12.181,0,0,0,1080.654,9579.152Zm0,21.317a9.136,9.136,0,1,1,9.136-9.137A9.134,9.134,0,0,1,1080.654,9600.47Z" transform="translate(-392.411 -8324.937)" fill="#6a8ad3"/>
    <path id="Path_925" data-name="Path 925" d="M1081.911,9607a24.639,24.639,0,0,0-24.5,21.934h2.525a22.14,22.14,0,0,1,43.949,0h2.526A24.64,24.64,0,0,0,1081.911,9607Z" transform="translate(-392.411 -8324.937)" fill="#6a8ad3"/>
  </g>
</svg>
