<svg xmlns="http://www.w3.org/2000/svg" width="29.014" height="27.862" viewBox="0 0 29.014 27.862">
  <g id="Group_1015" data-name="Group 1015" transform="translate(-114.528 -647.036)">
    <g id="Group_75" data-name="Group 75" transform="translate(-392.911 -9800.793)">
      <path id="Path_89" data-name="Path 89" d="M518.159,10468.888v5.4a.873.873,0,0,0,1.577.517l3.16-4.3Z" fill="none" stroke="#4d4d4d" stroke-miterlimit="10" stroke-width="1.056"/>
      <path id="Path_90" data-name="Path 90" d="M535.554,10448.537a.874.874,0,0,0-.911-.063l-26.206,13.686a.874.874,0,0,0,.121,1.6l7.285,2.49,15.515-13.266-12,14.464,12.209,4.174a.9.9,0,0,0,.282.046.873.873,0,0,0,.864-.744l3.2-21.547A.873.873,0,0,0,535.554,10448.537Z" fill="none" stroke="#4d4d4d" stroke-miterlimit="10" stroke-width="1.056"/>
    </g>
  </g>
</svg>
