<svg xmlns="http://www.w3.org/2000/svg" width="48.456" height="59.639" viewBox="0 0 48.456 59.639">
  <g id="Group_1007" data-name="Group 1007" transform="translate(-270.544 -1248.746)">
    <g id="Group_440" data-name="Group 440" transform="translate(-1411.021 -8355.253)">
      <g id="Group_439" data-name="Group 439">
        <path id="Path_689" data-name="Path 689" d="M1729.481,9615.722,1718.3,9604.54a1.864,1.864,0,0,0-1.323-.541h-29.819a5.591,5.591,0,0,0-5.591,5.591v48.456a5.592,5.592,0,0,0,5.591,5.592h37.274a5.592,5.592,0,0,0,5.591-5.592v-41A1.868,1.868,0,0,0,1729.481,9615.722Zm-2.815,42.766a1.9,1.9,0,0,1-1.9,1.9h-37.951a1.9,1.9,0,0,1-1.9-1.9V9609.15a1.9,1.9,0,0,1,1.9-1.9h28.464v7.59a3.794,3.794,0,0,0,3.8,3.795h7.59Z" fill="#fff"/>
      </g>
    </g>
    <rect id="Rectangle_304" data-name="Rectangle 304" width="30" height="5" rx="2.121" transform="translate(280 1268)" fill="#fff"/>
    <rect id="Rectangle_305" data-name="Rectangle 305" width="30" height="5" rx="2.121" transform="translate(280 1279)" fill="#fff"/>
    <rect id="Rectangle_306" data-name="Rectangle 306" width="30" height="5" rx="2.121" transform="translate(280 1291)" fill="#fff"/>
  </g>
</svg>
