<svg xmlns="http://www.w3.org/2000/svg" width="63.998" height="60" viewBox="0 0 63.998 60">
  <g id="Group_1011" data-name="Group 1011" transform="translate(-485 -1248)">
    <g id="Group_576" data-name="Group 576" transform="translate(-392.411 -8324.937)">
      <path id="Path_922" data-name="Path 922" d="M907.616,9589.54a1.8,1.8,0,0,0-1.8,1.8v10.927a3.144,3.144,0,0,0,3.131,5.43l6.264,3.614a1.8,1.8,0,1,0,1.8-3.116l-6.27-3.621a3.142,3.142,0,0,0-1.322-2.3v-10.929A1.8,1.8,0,0,0,907.616,9589.54Zm0,16.658a1.35,1.35,0,1,1,1.35-1.35A1.352,1.352,0,0,1,907.616,9606.2Z" fill="#6a8ad3"/>
    </g>
    <g id="Group_1010" data-name="Group 1010">
      <path id="Path_923" data-name="Path 923" d="M941.191,9603.917l-4.64,5.68a.913.913,0,0,1-1.421,0l-4.639-5.68a.974.974,0,0,1-.13-1.01.926.926,0,0,1,.84-.55h2.7a26.492,26.492,0,1,0-15.49,24.689s3,1.89,0,3.8c-4,2.09-7.121,2.09-11,2.09a30,30,0,1,1,29.98-30.6h.33c.009.01.009.01.009.021h2.75a.917.917,0,0,1,.841.55A.955.955,0,0,1,941.191,9603.917Z" transform="translate(-392.411 -8324.937)" fill="#6a8ad3"/>
    </g>
  </g>
</svg>
